# 3ds Max Wavefront OBJ Exporter v0.97b - (c)2007 guruware
# 创建的文件:21.04.2017 11:53:27

mtllib test6.mtl

#
# object Box014
#

v  2.2600 0.1835 78.2764
v  11.2405 7.0001 78.2764
v  2.2600 0.1835 53.4243
v  11.2405 7.0001 53.4243
v  2.2600 0.0001 78.2764
v  11.2405 0.0001 78.2764
v  2.2600 0.0001 53.4243
v  11.2405 0.0001 53.4243
v  9.8809 7.0001 78.2764
v  9.8809 7.0001 53.4243
v  3.3487 0.4630 78.2764
v  4.4374 0.9321 78.2764
v  5.5261 1.6745 78.2764
v  6.6148 2.5689 78.2764
v  7.7035 3.6696 78.2764
v  8.7922 5.1860 78.2764
v  8.7922 5.1860 53.4243
v  7.7035 3.6696 53.4243
v  6.6148 2.5689 53.4243
v  5.5261 1.6745 53.4243
v  4.4374 0.9321 53.4243
v  3.3487 0.4630 53.4243
# 22 vertices

vn -0.5997 0.8002 0.0000
vn -0.6738 0.7390 -0.0000
vn -0.6738 0.7390 0.0000
vn -0.5997 0.8002 -0.0000
vn 0.0000 -1.0000 -0.0000
vn 0.0000 -1.0000 -0.0000
vn 0.0000 -1.0000 -0.0000
vn 0.0000 -1.0000 -0.0000
vn 0.0000 0.0000 1.0000
vn 0.0000 0.0000 1.0000
vn 0.0000 0.0000 1.0000
vn 0.0000 0.0000 1.0000
vn 1.0000 0.0000 -0.0000
vn 1.0000 0.0000 -0.0000
vn 1.0000 0.0000 -0.0000
vn 1.0000 0.0000 -0.0000
vn 0.0000 0.0000 -1.0000
vn 0.0000 0.0000 -1.0000
vn 0.0000 0.0000 -1.0000
vn -1.0000 0.0000 -0.0000
vn -1.0000 0.0000 -0.0000
vn -1.0000 0.0000 -0.0000
vn -1.0000 0.0000 -0.0000
vn -0.4927 0.8702 -0.0000
vn 0.0000 1.0000 -0.0000
vn 0.0000 1.0000 -0.0000
vn -0.4927 0.8702 -0.0000
vn -0.8356 0.5494 0.0000
vn -0.4927 0.8702 -0.0000
vn -0.4927 0.8702 -0.0000
vn -0.8356 0.5494 -0.0000
vn -0.7640 0.6452 0.0000
vn -0.8356 0.5494 0.0000
vn -0.8356 0.5494 -0.0000
vn -0.7640 0.6452 0.0000
vn -0.6738 0.7390 -0.0000
vn -0.7640 0.6452 0.0000
vn -0.7640 0.6452 0.0000
vn -0.6738 0.7390 0.0000
vn -0.3232 0.9463 0.0000
vn -0.2487 0.9686 -0.0000
vn -0.2487 0.9686 -0.0000
vn -0.3232 0.9463 -0.0000
vn -0.4818 0.8763 0.0000
vn -0.3232 0.9463 0.0000
vn -0.3232 0.9463 -0.0000
vn -0.4818 0.8763 0.0000
vn -0.5997 0.8002 -0.0000
vn -0.4818 0.8763 0.0000
vn -0.4818 0.8763 0.0000
vn -0.5997 0.8002 0.0000
vn 0.0000 0.0000 1.0000
vn 0.0000 0.0000 1.0000
vn 0.0000 0.0000 1.0000
vn 0.0000 0.0000 1.0000
vn 0.0000 0.0000 1.0000
vn 0.0000 0.0000 1.0000
vn 0.0000 0.0000 1.0000
vn 0.0000 0.0000 1.0000
vn 0.0000 0.0000 1.0000
vn 0.0000 0.0000 1.0000
vn 0.0000 0.0000 1.0000
vn 0.0000 0.0000 1.0000
vn 0.0000 0.0000 1.0000
vn 0.0000 0.0000 1.0000
vn 0.0000 0.0000 1.0000
vn 0.0000 0.0000 1.0000
vn 0.0000 0.0000 1.0000
vn 0.0000 0.0000 1.0000
vn 0.0000 0.0000 1.0000
vn 0.0000 0.0000 1.0000
vn 0.0000 0.0000 1.0000
vn 0.0000 0.0000 -1.0000
vn 0.0000 0.0000 -1.0000
vn 0.0000 0.0000 -1.0000
vn 0.0000 0.0000 -1.0000
vn 0.0000 0.0000 -1.0000
vn 0.0000 0.0000 -1.0000
vn 0.0000 0.0000 -1.0000
vn 0.0000 0.0000 -1.0000
vn 0.0000 0.0000 -1.0000
vn 0.0000 0.0000 -1.0000
vn 0.0000 0.0000 -1.0000
vn 0.0000 0.0000 -1.0000
vn 0.0000 0.0000 -1.0000
vn 0.0000 0.0000 -1.0000
vn 0.0000 0.0000 -1.0000
vn 0.0000 0.0000 -1.0000
vn 0.0000 0.0000 -1.0000
vn 0.0000 0.0000 -1.0000
vn 0.0000 0.0000 -1.0000
vn 0.0000 0.0000 -1.0000
vn 0.0000 0.0000 -1.0000
vn 0.0000 0.0000 -1.0000
vn 0.0000 0.0000 -1.0000
vn 0.0000 0.0000 -1.0000
# 96 vertex normals

vt 0.6375 0.7334 0.0000
vt 0.7751 0.7334 0.0000
vt 0.6053 0.7334 0.0000
vt 0.7350 0.7334 0.0000
vt 0.2653 0.0005 0.0000
vt 0.2653 0.7334 0.0000
vt 0.0005 0.7334 0.0000
vt 0.0005 0.0005 0.0000
vt 0.2015 0.7347 0.0000
vt 0.2069 0.7347 0.0000
vt 0.2069 0.9995 0.0000
vt 0.1933 0.7668 0.0000
vt 0.2666 0.0005 0.0000
vt 0.4730 0.0005 0.0000
vt 0.4730 0.7334 0.0000
vt 0.2666 0.7334 0.0000
vt 0.2666 0.7342 0.0000
vt 0.4730 0.7342 0.0000
vt 0.2666 0.7743 0.0000
vt 0.4730 0.9991 0.0000
vt 0.7763 0.0005 0.0000
vt 0.7818 0.0005 0.0000
vt 0.7818 0.7334 0.0000
vt 0.7763 0.7334 0.0000
vt 0.5273 0.7334 0.0000
vt 0.0005 0.9995 0.0000
vt 0.4738 0.7334 0.0000
vt 0.4676 0.9991 0.0000
vt 0.6053 0.0005 0.0000
vt 0.6375 0.0005 0.0000
vt 0.7017 0.0005 0.0000
vt 0.7338 0.0005 0.0000
vt 0.4738 0.0005 0.0000
vt 0.5273 0.0005 0.0000
vt 0.0005 0.9594 0.0000
vt 0.0540 0.9273 0.0000
vt 0.0987 0.8952 0.0000
vt 0.1312 0.8631 0.0000
vt 0.1576 0.8310 0.0000
vt 0.1795 0.7989 0.0000
vt 0.5721 0.7334 0.0000
vt 0.5721 0.0005 0.0000
vt 0.7338 0.7334 0.0000
vt 0.7017 0.7334 0.0000
vt 0.6696 0.0005 0.0000
vt 0.6696 0.7334 0.0000
vt 0.4594 0.9670 0.0000
vt 0.4455 0.9349 0.0000
vt 0.4236 0.9028 0.0000
vt 0.3973 0.8707 0.0000
vt 0.3648 0.8386 0.0000
vt 0.3201 0.8064 0.0000
vt 0.7350 0.0005 0.0000
vt 0.7751 0.0005 0.0000
vt 0.6045 0.7334 0.0000
vt 0.6045 0.0005 0.0000
# 56 texture coords

g Box014
usemtl wire_255255255
s 2
f 13/1/1 14/3/2 19/29/3 20/30/4 
s 4
f 5/5/5 7/6/6 8/7/7 6/8/8 
s 8
f 1/9/9 5/10/10 6/11/11 11/12/12 
s 16
f 2/13/13 6/14/14 8/15/15 4/16/16 
s 32
f 4/17/17 8/18/18 10/19/19 
s 64
f 3/21/20 7/22/21 5/23/22 1/24/23 
s 2
f 9/2/24 2/4/25 4/53/26 10/54/27 
f 16/25/28 9/27/29 10/33/30 17/34/31 
f 15/41/32 16/25/33 17/34/34 18/42/35 
f 14/55/36 15/41/37 18/42/38 19/56/39 
f 22/31/40 3/32/41 1/43/42 11/44/43 
f 21/45/44 22/31/45 11/44/46 12/46/47 
f 20/30/48 21/45/49 12/46/50 13/1/51 
s 8
f 6/11/52 2/26/53 9/35/54 
f 6/11/55 9/35/56 16/36/57 
f 6/11/58 16/36/59 15/37/60 
f 6/11/61 15/37/62 14/38/63 
f 6/11/64 14/38/65 13/39/66 
f 6/11/67 13/39/68 12/40/69 
f 6/11/70 12/40/71 11/12/72 
s 32
f 8/18/73 7/20/74 3/28/75 
f 8/18/76 3/28/77 22/47/78 
f 8/18/79 22/47/80 21/48/81 
f 8/18/82 21/48/83 20/49/84 
f 8/18/85 20/49/86 19/50/87 
f 8/18/88 19/50/89 18/51/90 
f 8/18/91 18/51/92 17/52/93 
f 8/18/94 17/52/95 10/19/96 
# 12 polygons - 16 triangles

