# 3ds Max Wavefront OBJ Exporter v0.97b - (c)2007 guruware
# 创建的文件:21.04.2017 14:22:27

mtllib test12.mtl

#
# object obstaclesBox010
#

v  -56.2753 7.0000 6.8000
v  -54.2753 7.0000 6.8000
v  -56.2753 7.0000 -4.2000
v  -54.2753 7.0000 -4.2000
v  -56.2753 9.0000 6.8000
v  -54.2753 9.0000 6.8000
v  -56.2753 9.0000 -4.2000
v  -54.2753 9.0000 -4.2000
# 8 vertices

vn 0.0000 -1.0000 -0.0000
vn 0.0000 -1.0000 -0.0000
vn 0.0000 -1.0000 -0.0000
vn 0.0000 -1.0000 -0.0000
vn 0.0000 1.0000 -0.0000
vn 0.0000 1.0000 -0.0000
vn 0.0000 1.0000 -0.0000
vn 0.0000 1.0000 -0.0000
vn 0.0000 0.0000 1.0000
vn 0.0000 0.0000 1.0000
vn 0.0000 0.0000 1.0000
vn 0.0000 0.0000 1.0000
vn 1.0000 0.0000 -0.0000
vn 1.0000 0.0000 -0.0000
vn 1.0000 0.0000 -0.0000
vn 1.0000 0.0000 -0.0000
vn 0.0000 0.0000 -1.0000
vn 0.0000 0.0000 -1.0000
vn 0.0000 0.0000 -1.0000
vn 0.0000 0.0000 -1.0000
vn -1.0000 0.0000 -0.0000
vn -1.0000 0.0000 -0.0000
vn -1.0000 0.0000 -0.0000
vn -1.0000 0.0000 -0.0000
# 24 vertex normals

vt 0.8993 0.0005 0.0000
vt 0.8993 0.5319 0.0000
vt 0.8027 0.5319 0.0000
vt 0.8027 0.0005 0.0000
vt 0.7041 0.5319 0.0000
vt 0.6075 0.5319 0.0000
vt 0.6075 0.0005 0.0000
vt 0.7041 0.0005 0.0000
vt 0.1412 0.7305 0.0000
vt 0.2378 0.7305 0.0000
vt 0.2378 0.8271 0.0000
vt 0.1412 0.8271 0.0000
vt 0.6067 0.0005 0.0000
vt 0.6067 0.5319 0.0000
vt 0.5101 0.5319 0.0000
vt 0.5101 0.0005 0.0000
vt 0.0005 0.7276 0.0000
vt 0.0971 0.7276 0.0000
vt 0.0971 0.8243 0.0000
vt 0.0005 0.8243 0.0000
vt 0.8019 0.0005 0.0000
vt 0.8019 0.5319 0.0000
vt 0.7053 0.5319 0.0000
vt 0.7053 0.0005 0.0000
# 24 texture coords

g obstaclesBox010
usemtl wire_255255255
s 2
f 1/1/1 3/2/2 4/3/3 2/4/4 
s 4
f 5/5/5 6/6/6 8/7/7 7/8/8 
s 8
f 1/9/9 2/10/10 6/11/11 5/12/12 
s 16
f 2/13/13 4/14/14 8/15/15 6/16/16 
s 32
f 4/17/17 3/18/18 7/19/19 8/20/20 
s 64
f 3/21/21 1/22/22 5/23/23 7/24/24 
# 6 polygons

#
# object obstaclesBox009
#

v  -17.8584 7.0000 23.5442
v  -7.8584 7.0000 23.5442
v  -17.8584 7.0000 21.9442
v  -7.8584 7.0000 21.9442
v  -17.8584 7.5000 23.5442
v  -7.8584 7.5000 23.5442
v  -17.8584 7.5000 21.9442
v  -7.8584 7.5000 21.9442
v  -7.1217 7.0000 23.5083
v  -7.5952 7.0000 21.9800
v  -7.5952 7.5000 21.9800
v  -7.1217 7.5000 23.5083
v  -2.8232 7.0000 22.1767
v  -3.2967 7.0000 20.6484
v  -3.2967 7.5000 20.6484
v  -2.8232 7.5000 22.1767
# 16 vertices

vn 0.0000 -1.0000 -0.0000
vn 0.0000 -1.0000 -0.0000
vn 0.0000 -1.0000 -0.0000
vn 0.0000 -1.0000 -0.0000
vn 0.0000 1.0000 -0.0000
vn 0.0000 1.0000 -0.0000
vn 0.0000 1.0000 -0.0000
vn 0.0000 1.0000 -0.0000
vn 0.0000 0.0000 1.0000
vn 0.0000 0.0000 1.0000
vn 0.0000 0.0000 1.0000
vn 0.0000 0.0000 1.0000
vn 0.9552 0.0000 -0.2959
vn 0.9552 0.0000 -0.2959
vn 0.9552 0.0000 -0.2959
vn 0.9552 0.0000 -0.2959
vn 0.0000 0.0000 -1.0000
vn 0.0000 0.0000 -1.0000
vn 0.0000 0.0000 -1.0000
vn 0.0000 0.0000 -1.0000
vn -1.0000 0.0000 -0.0000
vn -1.0000 0.0000 -0.0000
vn -1.0000 0.0000 -0.0000
vn -1.0000 0.0000 -0.0000
vn 0.0000 -1.0000 -0.0000
vn 0.0000 -1.0000 -0.0000
vn 0.0000 -1.0000 -0.0000
vn 0.0000 -1.0000 -0.0000
vn 0.1348 0.0000 -0.9909
vn 0.1348 0.0000 -0.9909
vn 0.1348 0.0000 -0.9909
vn 0.1348 0.0000 -0.9909
vn 0.0000 1.0000 -0.0000
vn 0.0000 1.0000 -0.0000
vn 0.0000 1.0000 -0.0000
vn 0.0000 1.0000 -0.0000
vn 0.0486 0.0000 0.9988
vn 0.0486 0.0000 0.9988
vn 0.0486 0.0000 0.9988
vn 0.0486 0.0000 0.9988
vn 0.0000 -1.0000 -0.0000
vn 0.0000 -1.0000 -0.0000
vn 0.0000 -1.0000 -0.0000
vn 0.0000 -1.0000 -0.0000
vn -0.2959 0.0000 -0.9552
vn -0.2959 0.0000 -0.9552
vn -0.2959 0.0000 -0.9552
vn -0.2959 0.0000 -0.9552
vn 0.0000 1.0000 -0.0000
vn 0.0000 1.0000 -0.0000
vn 0.0000 1.0000 -0.0000
vn 0.0000 1.0000 -0.0000
vn 0.2959 0.0000 0.9552
vn 0.2959 0.0000 0.9552
vn 0.2959 0.0000 0.9552
vn 0.2959 0.0000 0.9552
# 56 vertex normals

vt 0.1756 0.0005 0.0000
vt 0.2528 0.0059 0.0000
vt 0.2191 0.4878 0.0000
vt 0.1419 0.4824 0.0000
vt 0.1404 0.0005 0.0000
vt 0.1404 0.4836 0.0000
vt 0.0631 0.4836 0.0000
vt 0.0631 0.0005 0.0000
vt 0.9247 0.0005 0.0000
vt 0.9247 0.4836 0.0000
vt 0.9005 0.4836 0.0000
vt 0.9005 0.0005 0.0000
vt 0.2164 0.5004 0.0000
vt 0.1412 0.5181 0.0000
vt 0.1387 0.5192 0.0000
vt 0.0648 0.4963 0.0000
vt 0.9496 0.2209 0.0000
vt 0.9496 0.7040 0.0000
vt 0.9254 0.7040 0.0000
vt 0.9254 0.2209 0.0000
vt 0.0618 0.0005 0.0000
vt 0.0618 0.0778 0.0000
vt 0.0377 0.0778 0.0000
vt 0.0377 0.0005 0.0000
vt 0.2661 0.7120 0.0000
vt 0.1909 0.7297 0.0000
vt 0.0743 0.7269 0.0000
vt 0.0005 0.7040 0.0000
vt 0.0618 0.0782 0.0000
vt 0.0618 0.1520 0.0000
vt 0.0377 0.1520 0.0000
vt 0.0377 0.0782 0.0000
vt 0.9254 0.2082 0.0000
vt 0.9496 0.2082 0.0000
vt 0.9254 0.0005 0.0000
vt 0.9496 0.0005 0.0000
vt 0.9247 0.5192 0.0000
vt 0.9005 0.5192 0.0000
vt 0.9247 0.7269 0.0000
vt 0.9005 0.7269 0.0000
# 40 texture coords

g obstaclesBox009
usemtl wire_255255255
s 2
f 9/25/25 11/26/26 12/27/27 10/28/28 
s 4
f 13/29/29 14/30/30 16/31/31 15/32/32 
s 8
f 9/33/33 10/34/34 14/35/35 13/36/36 
s 16
f 21/53/37 22/54/38 23/55/39 24/56/40 
s 32
f 12/41/41 11/42/42 15/43/43 16/44/44 
s 64
f 11/45/45 9/46/46 13/47/47 15/48/48 
s off
f 10/28/49 12/27/50 18/37/51 17/38/52 
f 12/41/53 16/44/54 19/57/55 18/58/56 
f 16/31/57 14/30/58 20/39/59 19/40/60 
f 14/35/61 10/34/62 17/61/63 20/62/64 
f 17/38/65 18/37/66 22/49/67 21/50/68 
f 18/58/69 19/57/70 23/59/71 22/60/72 
f 19/40/73 20/39/74 24/51/75 23/52/76 
f 20/62/77 17/61/78 21/63/79 24/64/80 
# 14 polygons

#
# object obstaclesBox008
#

v  -32.9313 7.0000 23.9942
v  -20.9312 7.0000 23.9942
v  -32.9313 7.0000 21.4942
v  -20.9312 7.0000 21.4942
v  -32.9313 7.5000 23.9942
v  -20.9312 7.5000 23.9942
v  -32.9313 7.5000 21.4942
v  -20.9312 7.5000 21.4942
# 8 vertices

vn 0.0000 -1.0000 -0.0000
vn 0.0000 -1.0000 -0.0000
vn 0.0000 -1.0000 -0.0000
vn 0.0000 -1.0000 -0.0000
vn 0.0000 1.0000 -0.0000
vn 0.0000 1.0000 -0.0000
vn 0.0000 1.0000 -0.0000
vn 0.0000 1.0000 -0.0000
vn 0.0000 0.0000 1.0000
vn 0.0000 0.0000 1.0000
vn 0.0000 0.0000 1.0000
vn 0.0000 0.0000 1.0000
vn 1.0000 0.0000 -0.0000
vn 1.0000 0.0000 -0.0000
vn 1.0000 0.0000 -0.0000
vn 1.0000 0.0000 -0.0000
vn 0.0000 0.0000 -1.0000
vn 0.0000 0.0000 -1.0000
vn 0.0000 0.0000 -1.0000
vn 0.0000 0.0000 -1.0000
vn -1.0000 0.0000 -0.0000
vn -1.0000 0.0000 -0.0000
vn -1.0000 0.0000 -0.0000
vn -1.0000 0.0000 -0.0000
# 24 vertex normals

vt 0.3885 0.0005 0.0000
vt 0.5093 0.0005 0.0000
vt 0.5093 0.5802 0.0000
vt 0.3885 0.5802 0.0000
vt 0.3877 0.0005 0.0000
vt 0.3877 0.5802 0.0000
vt 0.2669 0.5802 0.0000
vt 0.2669 0.0005 0.0000
vt 0.9746 0.0005 0.0000
vt 0.9746 0.5802 0.0000
vt 0.9504 0.5802 0.0000
vt 0.9504 0.0005 0.0000
vt 0.2911 0.5810 0.0000
vt 0.2911 0.7018 0.0000
vt 0.2669 0.7018 0.0000
vt 0.2669 0.5810 0.0000
vt 0.9995 0.0005 0.0000
vt 0.9995 0.5802 0.0000
vt 0.9753 0.5802 0.0000
vt 0.9753 0.0005 0.0000
vt 0.4126 0.5810 0.0000
vt 0.4126 0.7018 0.0000
vt 0.3885 0.7018 0.0000
vt 0.3885 0.5810 0.0000
# 24 texture coords

g obstaclesBox008
usemtl wire_255255255
s 2
f 25/65/81 27/66/82 28/67/83 26/68/84 
s 4
f 29/69/85 30/70/86 32/71/87 31/72/88 
s 8
f 25/73/89 26/74/90 30/75/91 29/76/92 
s 16
f 26/77/93 28/78/94 32/79/95 30/80/96 
s 32
f 28/81/97 27/82/98 31/83/99 32/84/100 
s 64
f 27/85/101 25/86/102 29/87/103 31/88/104 
# 6 polygons

