# 3ds Max Wavefront OBJ Exporter v0.97b - (c)2007 guruware
# 创建的文件:21.04.2017 15:08:06

mtllib 421.mtl

#
# object Line004
#

v  -59.5084 0.0001 27.4327
v  -59.4942 0.0001 27.4115
v  -59.4942 7.6987 27.4115
v  -59.5084 7.6987 27.4327
v  -59.8870 0.0001 28.0417
v  -59.8870 7.6987 28.0417
v  -62.5391 0.0001 27.4061
v  -62.5391 7.6987 27.4061
v  -60.2341 0.0001 28.6880
v  -60.2341 7.6987 28.6880
v  -62.5391 0.0001 76.4155
v  -62.5391 7.6987 76.4155
v  -60.5486 0.0001 29.3686
v  -60.5486 7.6987 29.3686
v  -61.5087 7.6987 76.4155
v  -61.5087 7.6987 33.0655
v  -60.8293 0.0001 30.0809
v  -60.8293 7.6987 30.0809
v  -61.5087 0.0001 33.0655
v  -61.5087 0.0001 76.4155
v  -61.5014 7.6987 32.9381
v  -61.0751 0.0001 30.8219
v  -61.0751 7.6987 30.8219
v  -61.5014 0.0001 32.9381
v  -61.4941 7.6987 32.8143
v  -61.2850 0.0001 31.5891
v  -61.2850 7.6987 31.5891
v  -61.4941 0.0001 32.8143
v  -61.4869 7.6987 32.6979
v  -61.4577 0.0001 32.3794
v  -61.4577 7.6987 32.3794
v  -61.4869 0.0001 32.6979
v  -61.4796 7.6987 32.5925
v  -61.4650 0.0001 32.4296
v  -61.4650 7.6987 32.4296
v  -61.4796 0.0001 32.5925
v  -61.4723 7.6987 32.5018
v  -61.4723 0.0001 32.5018
v  -62.5391 7.6987 76.9998
v  -61.5087 7.6987 77.0002
# 40 vertices

vn 0.7073 0.0000 0.7069
vn 0.7073 0.0000 0.7069
vn 0.7073 0.0000 0.7069
vn 0.7073 0.0000 0.7069
vn 0.7073 0.0000 0.7069
vn 0.7073 0.0000 0.7069
vn 0.7324 0.0000 0.6808
vn 0.7324 0.0000 0.6808
vn 0.7324 0.0000 0.6808
vn 0.7324 0.0000 0.6808
vn 0.7324 0.0000 0.6808
vn 0.7324 0.0000 0.6808
vn 0.0012 0.0000 -1.0000
vn 0.0012 0.0000 -1.0000
vn 0.0012 0.0000 -1.0000
vn 0.0012 0.0000 -1.0000
vn 0.0012 0.0000 -1.0000
vn 0.0012 0.0000 -1.0000
vn 0.0000 1.0000 -0.0000
vn 0.0000 1.0000 -0.0000
vn 0.0000 1.0000 -0.0000
vn 0.0000 1.0000 -0.0000
vn 0.0000 1.0000 -0.0000
vn 0.0000 1.0000 -0.0000
vn 0.7797 0.0000 0.6261
vn 0.7797 0.0000 0.6261
vn 0.7797 0.0000 0.6261
vn 0.7797 0.0000 0.6261
vn 0.7797 0.0000 0.6261
vn 0.7797 0.0000 0.6261
vn -1.0000 0.0000 -0.0000
vn -1.0000 0.0000 -0.0000
vn -1.0000 0.0000 -0.0000
vn -1.0000 0.0000 0.0000
vn -1.0000 0.0000 0.0000
vn -1.0000 0.0000 0.0000
vn 0.0000 1.0000 -0.0000
vn 0.0000 1.0000 -0.0000
vn 0.0000 1.0000 -0.0000
vn 0.8228 0.0000 0.5683
vn 0.8228 0.0000 0.5683
vn 0.8228 0.0000 0.5683
vn 0.8228 0.0000 0.5683
vn 0.8228 0.0000 0.5683
vn 0.8228 0.0000 0.5683
vn 0.0000 1.0000 -0.0000
vn 0.0000 1.0000 -0.0000
vn 0.0000 -1.0000 -0.0000
vn 0.0000 -1.0000 -0.0000
vn 0.0000 1.0000 -0.0000
vn 0.0000 1.0000 -0.0000
vn 0.0000 1.0000 -0.0000
vn 0.0000 1.0000 -0.0000
vn 0.0000 1.0000 -0.0000
vn 0.8616 0.0000 0.5076
vn 0.8616 0.0000 0.5076
vn 0.8616 0.0000 0.5076
vn 0.8616 0.0000 0.5076
vn 0.8616 0.0000 0.5076
vn 0.8616 0.0000 0.5076
vn 1.0000 -0.0000 -0.0000
vn 1.0000 -0.0000 -0.0000
vn 1.0000 -0.0000 -0.0000
vn 1.0000 0.0000 -0.0000
vn 1.0000 0.0000 -0.0000
vn 1.0000 0.0000 -0.0000
vn 0.0000 1.0000 -0.0000
vn 0.0000 1.0000 -0.0000
vn 0.0000 1.0000 -0.0000
vn 0.0000 1.0000 -0.0000
vn 0.0000 1.0000 -0.0000
vn 0.0000 1.0000 -0.0000
vn 0.8959 0.0000 0.4443
vn 0.8959 0.0000 0.4443
vn 0.8959 0.0000 0.4443
vn 0.8959 0.0000 0.4443
vn 0.8959 0.0000 0.4443
vn 0.8959 0.0000 0.4443
vn 0.9964 0.0000 0.0851
vn 0.9964 0.0000 0.0851
vn 0.9964 0.0000 0.0851
vn 0.9964 0.0000 0.0851
vn 0.9964 0.0000 0.0851
vn 0.9964 0.0000 0.0851
vn 0.0000 1.0000 -0.0000
vn 0.0000 1.0000 -0.0000
vn 0.0000 1.0000 -0.0000
vn 0.0000 1.0000 -0.0000
vn 0.0000 1.0000 -0.0000
vn 0.0000 1.0000 -0.0000
vn 0.9256 0.0000 0.3785
vn 0.9256 0.0000 0.3785
vn 0.9256 0.0000 0.3785
vn 0.9256 0.0000 0.3785
vn 0.9256 0.0000 0.3785
vn 0.9256 0.0000 0.3785
vn 0.9962 0.0000 0.0876
vn 0.9962 0.0000 0.0876
vn 0.9962 0.0000 0.0876
vn 0.9962 0.0000 0.0876
vn 0.9962 0.0000 0.0876
vn 0.9962 0.0000 0.0876
vn 0.0000 1.0000 -0.0000
vn 0.0000 1.0000 -0.0000
vn 0.0000 1.0000 -0.0000
vn 0.0000 1.0000 -0.0000
vn 0.0000 1.0000 -0.0000
vn 0.0000 1.0000 -0.0000
vn 0.9505 0.0000 0.3106
vn 0.9505 0.0000 0.3106
vn 0.9505 0.0000 0.3106
vn 0.9505 0.0000 0.3106
vn 0.9505 0.0000 0.3106
vn 0.9505 0.0000 0.3106
vn 0.9957 0.0000 0.0931
vn 0.9957 0.0000 0.0931
vn 0.9957 0.0000 0.0931
vn 0.9957 0.0000 0.0931
vn 0.9957 0.0000 0.0931
vn 0.9957 0.0000 0.0931
vn 0.0000 1.0000 -0.0000
vn 0.0000 1.0000 -0.0000
vn 0.0000 1.0000 -0.0000
vn 0.0000 1.0000 -0.0000
vn 0.0000 1.0000 -0.0000
vn 0.0000 1.0000 -0.0000
vn 0.9773 0.0000 0.2120
vn 0.9773 0.0000 0.2120
vn 0.9773 0.0000 0.2120
vn 0.9773 0.0000 0.2120
vn 0.9773 0.0000 0.2120
vn 0.9773 0.0000 0.2120
vn 0.9947 0.0000 0.1028
vn 0.9947 0.0000 0.1028
vn 0.9947 0.0000 0.1028
vn 0.9947 0.0000 0.1028
vn 0.9947 0.0000 0.1028
vn 0.9947 0.0000 0.1028
vn 0.0000 1.0000 -0.0000
vn 0.0000 1.0000 -0.0000
vn 0.0000 1.0000 -0.0000
vn 0.0000 1.0000 -0.0000
vn 0.0000 1.0000 -0.0000
vn 0.0000 1.0000 -0.0000
vn 0.9888 0.0000 0.1490
vn 0.9888 0.0000 0.1490
vn 0.9888 0.0000 0.1490
vn 0.9888 0.0000 0.1490
vn 0.9888 0.0000 0.1490
vn 0.9888 0.0000 0.1490
vn 0.9929 0.0000 0.1192
vn 0.9929 0.0000 0.1192
vn 0.9929 0.0000 0.1192
vn 0.9929 0.0000 0.1192
vn 0.9929 0.0000 0.1192
vn 0.9929 0.0000 0.1192
vn 0.0000 1.0000 -0.0000
vn 0.0000 1.0000 -0.0000
vn 0.0000 1.0000 -0.0000
vn 0.0000 -1.0000 -0.0000
vn 0.0000 -1.0000 -0.0000
vn 0.0000 1.0000 -0.0000
vn 0.0000 1.0000 -0.0000
vn 0.0000 -1.0000 -0.0000
vn 0.0000 -1.0000 -0.0000
vn 0.0000 -1.0000 0.0000
vn 0.0000 -1.0000 0.0000
vn 0.0000 -1.0000 0.0000
vn -0.0000 -1.0000 0.0000
vn -0.0000 -1.0000 0.0000
vn -0.0000 -1.0000 0.0000
vn 0.0000 -1.0000 -0.0000
vn 0.0000 -1.0000 -0.0000
vn 0.0000 -1.0000 -0.0000
vn 0.0000 -1.0000 -0.0000
vn 0.0000 -1.0000 -0.0000
vn 0.0000 -1.0000 -0.0000
vn 0.0000 -1.0000 -0.0000
vn 0.0000 -1.0000 -0.0000
vn 0.0000 -1.0000 -0.0000
vn 0.0000 -1.0000 -0.0000
vn 0.0000 -1.0000 -0.0000
vn 0.0000 -1.0000 -0.0000
vn 0.0000 -1.0000 -0.0000
vn 0.0000 -1.0000 -0.0000
vn 0.0000 -1.0000 -0.0000
vn 0.0000 -1.0000 -0.0000
vn 0.0000 -1.0000 -0.0000
vn 0.0000 -1.0000 -0.0000
vn 0.0000 -1.0000 -0.0000
vn 0.0000 -1.0000 -0.0000
vn 0.0000 -1.0000 -0.0000
vn 0.0000 -1.0000 -0.0000
vn 0.0000 -1.0000 -0.0000
vn 0.0000 -1.0000 -0.0000
vn 0.0000 -1.0000 -0.0000
vn 0.0000 -1.0000 -0.0000
vn 0.0000 -1.0000 -0.0000
vn 0.0000 -1.0000 -0.0000
vn 0.0000 -1.0000 -0.0000
vn 0.0000 -1.0000 -0.0000
vn 0.0000 -1.0000 -0.0000
vn 0.0000 -1.0000 -0.0000
vn 0.0000 -1.0000 -0.0000
vn 0.0000 -1.0000 -0.0000
vn 0.0000 -1.0000 -0.0000
vn 0.0000 -1.0000 -0.0000
vn 0.0000 -1.0000 -0.0000
vn 0.0000 -1.0000 -0.0000
vn 0.0000 -1.0000 -0.0000
vn 0.0000 -1.0000 -0.0000
vn 0.0000 -1.0000 -0.0000
vn 0.0000 -1.0000 -0.0000
vn 0.0000 -1.0000 -0.0000
vn 0.0000 -1.0000 -0.0000
vn 0.0000 -1.0000 -0.0000
vn 1.0000 0.0000 -0.0000
vn 1.0000 0.0000 -0.0000
vn 1.0000 0.0000 -0.0000
vn -1.0000 0.0000 0.0000
vn -1.0000 0.0000 0.0000
vn -1.0000 0.0000 0.0000
# 222 vertex normals

vt 0.5020 0.6361 0.0000
vt 0.6418 0.6361 0.0000
vt 0.6418 0.6366 0.0000
vt 0.6418 0.6366 0.0000
vt 0.5020 0.6366 0.0000
vt 0.5020 0.6361 0.0000
vt 0.5020 0.6224 0.0000
vt 0.6418 0.6224 0.0000
vt 0.6418 0.6361 0.0000
vt 0.6418 0.6361 0.0000
vt 0.5020 0.6361 0.0000
vt 0.5020 0.6224 0.0000
vt 0.5769 0.6374 0.0000
vt 0.5769 0.7773 0.0000
vt 0.5020 0.7773 0.0000
vt 0.5020 0.7773 0.0000
vt 0.5020 0.6374 0.0000
vt 0.5769 0.6374 0.0000
vt 0.7838 0.0009 0.0000
vt 0.7834 0.0006 0.0000
vt 0.8583 0.0005 0.0000
vt 0.8583 0.0005 0.0000
vt 0.7931 0.0110 0.0000
vt 0.7838 0.0009 0.0000
vt 0.5020 0.6088 0.0000
vt 0.6418 0.6088 0.0000
vt 0.6418 0.6224 0.0000
vt 0.6418 0.6224 0.0000
vt 0.5020 0.6224 0.0000
vt 0.5020 0.6088 0.0000
vt 0.5011 0.0005 0.0000
vt 0.5011 0.8069 0.0000
vt 0.3612 0.7845 0.0000
vt 0.3612 0.7845 0.0000
vt 0.3612 0.0005 0.0000
vt 0.5011 0.0005 0.0000
vt 0.8016 0.0216 0.0000
vt 0.7931 0.0110 0.0000
vt 0.8583 0.0005 0.0000
vt 0.5020 0.5954 0.0000
vt 0.6418 0.5954 0.0000
vt 0.6418 0.6088 0.0000
vt 0.6418 0.6088 0.0000
vt 0.5020 0.6088 0.0000
vt 0.5020 0.5954 0.0000
vt 0.8330 0.0936 0.0000
vt 0.8583 0.0005 0.0000
vt 0.8583 0.7845 0.0000
vt 0.8583 0.7845 0.0000
vt 0.8330 0.7872 0.0000
vt 0.8330 0.0936 0.0000
vt 0.8094 0.0328 0.0000
vt 0.8016 0.0216 0.0000
vt 0.8583 0.0005 0.0000
vt 0.5020 0.5823 0.0000
vt 0.6418 0.5823 0.0000
vt 0.6418 0.5954 0.0000
vt 0.6418 0.5954 0.0000
vt 0.5020 0.5954 0.0000
vt 0.5020 0.5823 0.0000
vt 0.5020 0.5357 0.0000
vt 0.5020 0.0452 0.0000
vt 0.6418 0.0312 0.0000
vt 0.6418 0.0312 0.0000
vt 0.6418 0.5357 0.0000
vt 0.5020 0.5357 0.0000
vt 0.8330 0.0936 0.0000
vt 0.8328 0.0915 0.0000
vt 0.8583 0.0005 0.0000
vt 0.8163 0.0445 0.0000
vt 0.8094 0.0328 0.0000
vt 0.8583 0.0005 0.0000
vt 0.5020 0.5694 0.0000
vt 0.6418 0.5694 0.0000
vt 0.6418 0.5823 0.0000
vt 0.6418 0.5823 0.0000
vt 0.5020 0.5823 0.0000
vt 0.5020 0.5694 0.0000
vt 0.5020 0.5357 0.0000
vt 0.6418 0.5357 0.0000
vt 0.6418 0.5373 0.0000
vt 0.6418 0.5373 0.0000
vt 0.5020 0.5373 0.0000
vt 0.5020 0.5357 0.0000
vt 0.8328 0.0915 0.0000
vt 0.8326 0.0895 0.0000
vt 0.8583 0.0005 0.0000
vt 0.8223 0.0567 0.0000
vt 0.8163 0.0445 0.0000
vt 0.8583 0.0005 0.0000
vt 0.5020 0.5568 0.0000
vt 0.6418 0.5568 0.0000
vt 0.6418 0.5694 0.0000
vt 0.6418 0.5694 0.0000
vt 0.5020 0.5694 0.0000
vt 0.5020 0.5568 0.0000
vt 0.5020 0.5373 0.0000
vt 0.6418 0.5373 0.0000
vt 0.6418 0.5389 0.0000
vt 0.6418 0.5389 0.0000
vt 0.5020 0.5389 0.0000
vt 0.5020 0.5373 0.0000
vt 0.8326 0.0895 0.0000
vt 0.8324 0.0876 0.0000
vt 0.8583 0.0005 0.0000
vt 0.8275 0.0693 0.0000
vt 0.8223 0.0567 0.0000
vt 0.8583 0.0005 0.0000
vt 0.5020 0.5446 0.0000
vt 0.6418 0.5446 0.0000
vt 0.6418 0.5568 0.0000
vt 0.6418 0.5568 0.0000
vt 0.5020 0.5568 0.0000
vt 0.5020 0.5446 0.0000
vt 0.5020 0.5389 0.0000
vt 0.6418 0.5389 0.0000
vt 0.6418 0.5404 0.0000
vt 0.6418 0.5404 0.0000
vt 0.5020 0.5404 0.0000
vt 0.5020 0.5389 0.0000
vt 0.8324 0.0876 0.0000
vt 0.8323 0.0858 0.0000
vt 0.8583 0.0005 0.0000
vt 0.8317 0.0823 0.0000
vt 0.8275 0.0693 0.0000
vt 0.8583 0.0005 0.0000
vt 0.5020 0.5439 0.0000
vt 0.6418 0.5439 0.0000
vt 0.6418 0.5446 0.0000
vt 0.6418 0.5446 0.0000
vt 0.5020 0.5446 0.0000
vt 0.5020 0.5439 0.0000
vt 0.5020 0.5404 0.0000
vt 0.6418 0.5404 0.0000
vt 0.6418 0.5417 0.0000
vt 0.6418 0.5417 0.0000
vt 0.5020 0.5417 0.0000
vt 0.5020 0.5404 0.0000
vt 0.8323 0.0858 0.0000
vt 0.8321 0.0843 0.0000
vt 0.8583 0.0005 0.0000
vt 0.8319 0.0832 0.0000
vt 0.8317 0.0823 0.0000
vt 0.8583 0.0005 0.0000
vt 0.5020 0.5429 0.0000
vt 0.6418 0.5429 0.0000
vt 0.6418 0.5439 0.0000
vt 0.6418 0.5439 0.0000
vt 0.5020 0.5439 0.0000
vt 0.5020 0.5429 0.0000
vt 0.5020 0.5417 0.0000
vt 0.6418 0.5417 0.0000
vt 0.6418 0.5429 0.0000
vt 0.6418 0.5429 0.0000
vt 0.5020 0.5429 0.0000
vt 0.5020 0.5417 0.0000
vt 0.8321 0.0843 0.0000
vt 0.8319 0.0832 0.0000
vt 0.8583 0.0005 0.0000
vt 0.8583 0.8069 0.0000
vt 0.8330 0.8069 0.0000
vt 0.8330 0.7872 0.0000
vt 0.8330 0.7872 0.0000
vt 0.8583 0.7845 0.0000
vt 0.8583 0.8069 0.0000
vt 0.6418 0.5357 0.0000
vt 0.6418 0.0312 0.0000
vt 0.5011 0.8069 0.0000
vt 0.6418 0.5357 0.0000
vt 0.5011 0.8069 0.0000
vt 0.5011 0.0005 0.0000
vt 0.6418 0.5373 0.0000
vt 0.6418 0.5357 0.0000
vt 0.5011 0.0005 0.0000
vt 0.6418 0.5389 0.0000
vt 0.6418 0.5373 0.0000
vt 0.5011 0.0005 0.0000
vt 0.6418 0.5404 0.0000
vt 0.6418 0.5389 0.0000
vt 0.5011 0.0005 0.0000
vt 0.6418 0.5417 0.0000
vt 0.6418 0.5404 0.0000
vt 0.5011 0.0005 0.0000
vt 0.6418 0.5429 0.0000
vt 0.6418 0.5417 0.0000
vt 0.5011 0.0005 0.0000
vt 0.6418 0.5439 0.0000
vt 0.6418 0.5429 0.0000
vt 0.5011 0.0005 0.0000
vt 0.6418 0.5446 0.0000
vt 0.6418 0.5439 0.0000
vt 0.5011 0.0005 0.0000
vt 0.6418 0.5568 0.0000
vt 0.6418 0.5446 0.0000
vt 0.5011 0.0005 0.0000
vt 0.6418 0.5694 0.0000
vt 0.6418 0.5568 0.0000
vt 0.5011 0.0005 0.0000
vt 0.6418 0.5823 0.0000
vt 0.6418 0.5694 0.0000
vt 0.5011 0.0005 0.0000
vt 0.6418 0.5954 0.0000
vt 0.6418 0.5823 0.0000
vt 0.5011 0.0005 0.0000
vt 0.6418 0.6088 0.0000
vt 0.6418 0.5954 0.0000
vt 0.5011 0.0005 0.0000
vt 0.6418 0.6224 0.0000
vt 0.6418 0.6088 0.0000
vt 0.5011 0.0005 0.0000
vt 0.6418 0.6361 0.0000
vt 0.6418 0.6224 0.0000
vt 0.5011 0.0005 0.0000
vt 0.6418 0.6361 0.0000
vt 0.5011 0.0005 0.0000
vt 0.5769 0.7773 0.0000
vt 0.5011 0.8069 0.0000
vt 0.3612 0.8069 0.0000
vt 0.3612 0.7845 0.0000
vt 0.5020 0.0452 0.0000
vt 0.5020 0.0312 0.0000
vt 0.6418 0.0312 0.0000
# 222 texture coords

g Line004
usemtl wire_016015015
s off
f 4/1/1 1/2/2 2/3/3 
f 2/4/4 3/5/5 4/6/6 
f 6/7/7 5/8/8 1/9/9 
f 1/10/10 4/11/11 6/12/12 
f 3/13/13 2/14/14 7/15/15 
f 7/16/16 8/17/17 3/18/18 
s 1
f 4/19/19 3/20/20 8/21/21 
f 8/22/22 6/23/23 4/24/24 
s off
f 10/25/25 9/26/26 5/27/27 
f 5/28/28 6/29/29 10/30/30 
f 7/31/31 11/32/32 39/33/33 
f 39/34/34 8/35/35 7/36/36 
s 1
f 10/37/37 6/38/38 8/39/39 
s off
f 14/40/40 13/41/41 9/42/42 
f 9/43/43 10/44/44 14/45/45 
s 1
f 16/46/46 8/47/47 39/48/48 
f 39/49/49 40/50/50 16/51/51 
f 14/52/52 10/53/53 8/54/54 
s off
f 18/55/55 17/56/56 13/57/57 
f 13/58/58 14/59/59 18/60/60 
f 16/61/61 40/62/62 20/63/63 
f 20/64/64 19/65/65 16/66/66 
s 1
f 16/67/67 21/68/68 8/69/69 
f 18/70/70 14/71/71 8/72/72 
s off
f 23/73/73 22/74/74 17/75/75 
f 17/76/76 18/77/77 23/78/78 
f 16/79/79 19/80/80 24/81/81 
f 24/82/82 21/83/83 16/84/84 
s 1
f 21/85/85 25/86/86 8/87/87 
f 23/88/88 18/89/89 8/90/90 
s off
f 27/91/91 26/92/92 22/93/93 
f 22/94/94 23/95/95 27/96/96 
f 21/97/97 24/98/98 28/99/99 
f 28/100/100 25/101/101 21/102/102 
s 1
f 25/103/103 29/104/104 8/105/105 
f 27/106/106 23/107/107 8/108/108 
s off
f 31/109/109 30/110/110 26/111/111 
f 26/112/112 27/113/113 31/114/114 
f 25/115/115 28/116/116 32/117/117 
f 32/118/118 29/119/119 25/120/120 
s 1
f 29/121/121 33/122/122 8/123/123 
f 31/124/124 27/125/125 8/126/126 
s off
f 35/127/127 34/128/128 30/129/129 
f 30/130/130 31/131/131 35/132/132 
f 29/133/133 32/134/134 36/135/135 
f 36/136/136 33/137/137 29/138/138 
s 1
f 33/139/139 37/140/140 8/141/141 
f 35/142/142 31/143/143 8/144/144 
s off
f 37/145/145 38/146/146 34/147/147 
f 34/148/148 35/149/149 37/150/150 
f 33/151/151 36/152/152 38/153/153 
f 38/154/154 37/155/155 33/156/156 
s 1
f 37/157/157 35/158/158 8/159/159 
f 12/160/160 15/161/161 40/162/162 
f 40/163/163 39/164/164 12/165/165 
s off
f 19/166/166 20/167/167 11/168/168 
f 19/169/169 11/170/170 7/171/171 
f 24/172/172 19/173/173 7/174/174 
f 28/175/175 24/176/176 7/177/177 
f 32/178/178 28/179/179 7/180/180 
f 36/181/181 32/182/182 7/183/183 
f 38/184/184 36/185/185 7/186/186 
f 34/187/187 38/188/188 7/189/189 
f 30/190/190 34/191/191 7/192/192 
f 26/193/193 30/194/194 7/195/195 
f 22/196/196 26/197/197 7/198/198 
f 17/199/199 22/200/200 7/201/201 
f 13/202/202 17/203/203 7/204/204 
f 9/205/205 13/206/206 7/207/207 
f 5/208/208 9/209/209 7/210/210 
f 1/211/211 5/212/212 7/213/213 
f 1/214/214 7/215/215 2/216/216 
f 11/217/217 12/218/218 39/219/219 
f 40/220/220 15/221/221 20/222/222 
# 0 polygons - 74 triangles

#
# object Line003
#

v  -63.8070 0.0000 24.3177
v  -63.8070 0.0000 77.5038
v  -50.5165 0.0000 77.5038
v  -50.5165 0.0000 75.9639
v  -62.2666 0.0000 75.9639
v  -62.2666 0.0000 29.9771
v  -62.2557 0.0000 29.8496
v  -62.2448 0.0000 29.7258
v  -62.2339 0.0000 29.6094
v  -62.2231 0.0000 29.5040
v  -62.2122 0.0000 29.4134
v  -62.2013 0.0000 29.3411
v  -62.1904 0.0000 29.2910
v  -61.9321 0.0000 28.5006
v  -61.6184 0.0000 27.7335
v  -61.2509 0.0000 26.9924
v  -60.8313 0.0000 26.2802
v  -60.3612 0.0000 25.5995
v  -59.8423 0.0000 24.9533
v  -59.2762 0.0000 24.3443
v  -59.2550 0.0000 24.3231
v  -59.2762 8.5000 24.3443
v  -59.2550 8.5000 24.3231
v  -63.8070 8.5000 24.3177
v  -63.8070 8.5000 77.5038
v  -50.5165 8.5000 77.5038
v  -50.5165 8.5000 75.9639
v  -62.2666 8.5000 75.9639
v  -62.2666 8.5000 29.9771
v  -62.2557 8.5000 29.8496
v  -62.2448 8.5000 29.7258
v  -62.2339 8.5000 29.6094
v  -62.2231 8.5000 29.5040
v  -62.2122 8.5000 29.4134
v  -62.2013 8.5000 29.3411
v  -62.1904 8.5000 29.2910
v  -61.9321 8.5000 28.5006
v  -61.6184 8.5000 27.7335
v  -61.2509 8.5000 26.9924
v  -60.8313 8.5000 26.2802
v  -60.3612 8.5000 25.5995
v  -59.8423 8.5000 24.9533
# 42 vertices

vn 0.0000 1.0000 -0.0000
vn 0.0000 1.0000 -0.0000
vn 0.0000 1.0000 -0.0000
vn 0.7073 0.0000 0.7069
vn 0.7073 0.0000 0.7069
vn 0.7073 0.0000 0.7069
vn 0.7073 0.0000 0.7069
vn 0.0012 0.0000 -1.0000
vn 0.0012 0.0000 -1.0000
vn 0.0012 0.0000 -1.0000
vn 0.0012 0.0000 -1.0000
vn -1.0000 0.0000 -0.0000
vn -1.0000 0.0000 -0.0000
vn -1.0000 0.0000 -0.0000
vn -1.0000 0.0000 -0.0000
vn 0.0000 0.0000 1.0000
vn 0.0000 0.0000 1.0000
vn 0.0000 0.0000 1.0000
vn 0.0000 0.0000 1.0000
vn 1.0000 0.0000 -0.0000
vn 1.0000 0.0000 -0.0000
vn 1.0000 0.0000 -0.0000
vn 1.0000 0.0000 -0.0000
vn 0.0000 0.0000 -1.0000
vn 0.0000 0.0000 -1.0000
vn 0.0000 0.0000 -1.0000
vn 0.0000 0.0000 -1.0000
vn 1.0000 0.0000 -0.0000
vn 1.0000 0.0000 -0.0000
vn 1.0000 0.0000 -0.0000
vn 1.0000 0.0000 -0.0000
vn 0.9964 0.0000 0.0851
vn 0.9964 0.0000 0.0851
vn 0.9964 0.0000 0.0851
vn 0.9964 0.0000 0.0851
vn 0.9962 0.0000 0.0876
vn 0.9962 0.0000 0.0876
vn 0.9962 0.0000 0.0876
vn 0.9962 0.0000 0.0876
vn 0.9957 0.0000 0.0931
vn 0.9957 0.0000 0.0931
vn 0.9957 0.0000 0.0931
vn 0.9957 0.0000 0.0931
vn 0.9947 0.0000 0.1028
vn 0.9947 0.0000 0.1028
vn 0.9947 0.0000 0.1028
vn 0.9947 0.0000 0.1028
vn 0.9929 0.0000 0.1192
vn 0.9929 0.0000 0.1192
vn 0.9929 0.0000 0.1192
vn 0.9929 0.0000 0.1192
vn 0.9888 0.0000 0.1490
vn 0.9888 0.0000 0.1490
vn 0.9888 0.0000 0.1490
vn 0.9888 0.0000 0.1490
vn 0.9773 0.0000 0.2120
vn 0.9773 0.0000 0.2120
vn 0.9773 0.0000 0.2120
vn 0.9773 0.0000 0.2120
vn 0.9505 0.0000 0.3106
vn 0.9505 0.0000 0.3106
vn 0.9505 0.0000 0.3106
vn 0.9505 0.0000 0.3106
vn 0.9256 0.0000 0.3785
vn 0.9256 0.0000 0.3785
vn 0.9256 0.0000 0.3785
vn 0.9256 0.0000 0.3785
vn 0.8959 0.0000 0.4443
vn 0.8959 0.0000 0.4443
vn 0.8959 0.0000 0.4443
vn 0.8959 0.0000 0.4443
vn 0.8616 0.0000 0.5076
vn 0.8616 0.0000 0.5076
vn 0.8616 0.0000 0.5076
vn 0.8616 0.0000 0.5076
vn 0.8228 0.0000 0.5683
vn 0.8228 0.0000 0.5683
vn 0.8228 0.0000 0.5683
vn 0.8228 0.0000 0.5683
vn 0.7797 0.0000 0.6261
vn 0.7797 0.0000 0.6261
vn 0.7797 0.0000 0.6261
vn 0.7797 0.0000 0.6261
vn 0.7324 0.0000 0.6808
vn 0.7324 0.0000 0.6808
vn 0.7324 0.0000 0.6808
vn 0.7324 0.0000 0.6808
vn 0.0000 1.0000 -0.0000
vn 0.0000 1.0000 -0.0000
vn 0.0000 1.0000 -0.0000
vn 0.0000 1.0000 -0.0000
vn 0.0000 1.0000 -0.0000
vn 0.0000 1.0000 -0.0000
vn 0.0000 1.0000 -0.0000
vn 0.0000 1.0000 -0.0000
vn 0.0000 1.0000 -0.0000
vn 0.0000 1.0000 -0.0000
vn 0.0000 1.0000 -0.0000
vn 0.0000 1.0000 -0.0000
vn 0.0000 1.0000 -0.0000
vn 0.0000 1.0000 -0.0000
vn 0.0000 1.0000 -0.0000
vn 0.0000 1.0000 -0.0000
vn 0.0000 1.0000 -0.0000
vn 0.0000 1.0000 -0.0000
vn 0.0000 1.0000 -0.0000
vn 0.0000 1.0000 -0.0000
vn 0.0000 1.0000 -0.0000
vn 0.0000 1.0000 -0.0000
vn 0.0000 1.0000 -0.0000
vn 0.0000 1.0000 -0.0000
vn 0.0000 1.0000 -0.0000
vn 0.0000 1.0000 -0.0000
vn 0.0000 1.0000 -0.0000
vn 0.0000 1.0000 -0.0000
vn 0.0000 1.0000 -0.0000
vn 0.0000 1.0000 -0.0000
vn 0.0000 1.0000 -0.0000
vn 0.0000 1.0000 -0.0000
vn 0.0000 1.0000 -0.0000
vn 0.0000 1.0000 -0.0000
vn 0.0000 1.0000 -0.0000
vn 0.0000 1.0000 -0.0000
vn 0.0000 1.0000 -0.0000
vn 0.0000 1.0000 -0.0000
vn 0.0000 1.0000 -0.0000
vn 0.0000 1.0000 -0.0000
vn 0.0000 1.0000 -0.0000
vn 0.0000 1.0000 -0.0000
vn 0.0000 1.0000 -0.0000
vn 0.0000 1.0000 -0.0000
vn 0.0000 1.0000 -0.0000
vn 0.0000 1.0000 -0.0000
vn 0.0000 1.0000 -0.0000
vn 0.0000 1.0000 -0.0000
vn 0.0000 1.0000 -0.0000
vn 0.0000 1.0000 -0.0000
# 137 vertex normals

vt 0.1425 0.8494 0.0000
vt 0.7826 0.6374 0.0000
vt 0.7826 0.8561 0.0000
vt 0.9995 0.0005 0.0000
vt 0.7826 0.6361 0.0000
vt 0.7826 0.6366 0.0000
vt 0.6427 0.6366 0.0000
vt 0.6427 0.6361 0.0000
vt 0.7826 0.0005 0.0000
vt 0.7826 0.5357 0.0000
vt 0.6427 0.5357 0.0000
vt 0.6427 0.0005 0.0000
vt 0.7826 0.5373 0.0000
vt 0.6427 0.5373 0.0000
vt 0.7826 0.5389 0.0000
vt 0.6427 0.5389 0.0000
vt 0.7826 0.5404 0.0000
vt 0.6427 0.5404 0.0000
vt 0.7826 0.5417 0.0000
vt 0.6427 0.5417 0.0000
vt 0.0676 0.8494 0.0000
vt 0.7826 0.5429 0.0000
vt 0.0676 0.7095 0.0000
vt 0.1425 0.7095 0.0000
vt 0.0005 0.8757 0.0000
vt 0.0005 0.8503 0.0000
vt 0.2192 0.8757 0.0000
vt 0.6427 0.5429 0.0000
vt 0.7826 0.5439 0.0000
vt 0.6427 0.5439 0.0000
vt 0.7826 0.5446 0.0000
vt 0.6427 0.5446 0.0000
vt 0.7826 0.5568 0.0000
vt 0.6427 0.5568 0.0000
vt 0.7826 0.5694 0.0000
vt 0.6427 0.5694 0.0000
vt 0.7826 0.5823 0.0000
vt 0.6427 0.5823 0.0000
vt 0.7826 0.5954 0.0000
vt 0.6427 0.5954 0.0000
vt 0.7826 0.6088 0.0000
vt 0.6427 0.6088 0.0000
vt 0.1929 0.8494 0.0000
vt 0.1676 0.8494 0.0000
vt 0.1676 0.7095 0.0000
vt 0.1929 0.7095 0.0000
vt 0.3604 0.0005 0.0000
vt 0.3604 0.8757 0.0000
vt 0.2205 0.8757 0.0000
vt 0.2205 0.0005 0.0000
vt 0.9995 0.1938 0.0000
vt 0.8596 0.1938 0.0000
vt 0.8596 0.0005 0.0000
vt 0.6427 0.8561 0.0000
vt 0.6427 0.6374 0.0000
vt 0.1540 0.0110 0.0000
vt 0.1446 0.0009 0.0000
vt 0.1443 0.0006 0.0000
vt 0.2192 0.0005 0.0000
vt 0.1625 0.0216 0.0000
vt 0.1702 0.0328 0.0000
vt 0.1771 0.0445 0.0000
vt 0.1832 0.0567 0.0000
vt 0.1883 0.0693 0.0000
vt 0.1926 0.0823 0.0000
vt 0.1928 0.0832 0.0000
vt 0.1929 0.0843 0.0000
vt 0.1931 0.0858 0.0000
vt 0.1933 0.0876 0.0000
vt 0.1935 0.0895 0.0000
vt 0.1937 0.0915 0.0000
vt 0.1938 0.0936 0.0000
vt 0.1938 0.8503 0.0000
vt 0.7826 0.6224 0.0000
vt 0.6427 0.6224 0.0000
# 75 texture coords

g Line003
usemtl wire_016015015
s 1
f 66/247/223 67/248/224 65/249/225 
s off
f 60/227/226 61/228/227 63/229/228 62/230/229 
f 61/223/230 41/243/231 64/245/232 63/246/233 
f 41/269/234 42/270/235 65/271/236 64/272/237 
f 42/224/238 43/225/239 66/276/240 65/277/241 
f 43/265/242 44/266/243 67/267/244 66/268/245 
f 44/226/246 45/273/247 68/274/248 67/275/249 
f 45/231/250 46/232/251 69/233/252 68/234/253 
f 46/232/254 47/235/255 70/236/256 69/233/257 
f 47/235/258 48/237/259 71/238/260 70/236/261 
f 48/237/262 49/239/263 72/240/264 71/238/265 
f 49/239/266 50/241/267 73/242/268 72/240/269 
f 50/241/270 51/244/271 74/250/272 73/242/273 
f 51/244/274 52/251/275 75/252/276 74/250/277 
f 52/251/278 53/253/279 76/254/280 75/252/281 
f 53/253/282 54/255/283 77/256/284 76/254/285 
f 54/255/286 55/257/287 78/258/288 77/256/289 
f 55/257/290 56/259/291 79/260/292 78/258/293 
f 56/259/294 57/261/295 80/262/296 79/260/297 
f 57/261/298 58/263/299 81/264/300 80/262/301 
f 58/263/302 59/296/303 82/297/304 81/264/305 
f 59/296/306 60/227/307 62/230/308 82/297/309 
s 1
f 62/279/310 63/280/311 64/281/312 82/278/313 
f 81/282/314 82/278/315 64/281/316 
f 80/283/317 81/282/318 64/281/319 
f 79/284/320 80/283/321 64/281/322 
f 78/285/323 79/284/324 64/281/325 
f 77/286/326 78/285/327 64/281/328 
f 76/287/329 77/286/330 64/281/331 
f 75/288/332 76/287/333 64/281/334 
f 74/289/335 75/288/336 64/281/337 
f 73/290/338 74/289/339 64/281/340 
f 72/291/341 73/290/342 64/281/343 
f 71/292/344 72/291/345 64/281/346 
f 70/293/347 71/292/348 64/281/349 
f 69/294/350 70/293/351 64/281/352 
f 67/248/353 68/295/354 65/249/355 
f 68/295/356 69/294/357 64/281/358 65/249/359 
# 23 polygons - 15 triangles

