# 3ds Max Wavefront OBJ Exporter v0.97b - (c)2007 guruware
# 创建的文件:25.04.2017 02:44:19

mtllib test15.mtl

#
# object obstaclesBox012
#

v  -31.7330 0.0000 58.6764
v  -6.7330 0.0000 58.6764
v  -31.7330 0.0000 56.6764
v  -6.7330 0.0000 56.6764
v  -31.7330 1.0000 58.6764
v  -6.7330 1.0000 58.6764
v  -31.7330 1.0000 56.6764
v  -6.7330 1.0000 56.6764
# 8 vertices

vn 0.0000 -1.0000 -0.0000
vn 0.0000 -1.0000 -0.0000
vn 0.0000 -1.0000 -0.0000
vn 0.0000 -1.0000 -0.0000
vn 0.0000 1.0000 -0.0000
vn 0.0000 1.0000 -0.0000
vn 0.0000 1.0000 -0.0000
vn 0.0000 1.0000 -0.0000
vn 0.0000 0.0000 1.0000
vn 0.0000 0.0000 1.0000
vn 0.0000 0.0000 1.0000
vn 0.0000 0.0000 1.0000
vn 1.0000 0.0000 -0.0000
vn 1.0000 0.0000 -0.0000
vn 1.0000 0.0000 -0.0000
vn 1.0000 0.0000 -0.0000
vn 0.0000 0.0000 -1.0000
vn 0.0000 0.0000 -1.0000
vn 0.0000 0.0000 -1.0000
vn 0.0000 0.0000 -1.0000
vn -1.0000 0.0000 -0.0000
vn -1.0000 0.0000 -0.0000
vn -1.0000 0.0000 -0.0000
vn -1.0000 0.0000 -0.0000
# 24 vertex normals

vt 0.7436 0.0005 0.0000
vt 0.8175 0.0005 0.0000
vt 0.8175 0.9246 0.0000
vt 0.7436 0.9246 0.0000
vt 0.8924 0.0005 0.0000
vt 0.8924 0.9246 0.0000
vt 0.8185 0.9246 0.0000
vt 0.8185 0.0005 0.0000
vt 0.9682 0.0005 0.0000
vt 0.9682 0.9246 0.0000
vt 0.9312 0.9246 0.0000
vt 0.9312 0.0005 0.0000
vt 0.2602 0.9256 0.0000
vt 0.2602 0.9995 0.0000
vt 0.2232 0.9995 0.0000
vt 0.2232 0.9256 0.0000
vt 0.9303 0.0005 0.0000
vt 0.9303 0.9246 0.0000
vt 0.8933 0.9246 0.0000
vt 0.8933 0.0005 0.0000
vt 0.0375 0.9256 0.0000
vt 0.0375 0.9995 0.0000
vt 0.0005 0.9995 0.0000
vt 0.0005 0.9256 0.0000
# 24 texture coords

g obstaclesBox012
usemtl wire_255255255
s 2
f 1/1/1 3/2/2 4/3/3 2/4/4 
s 4
f 5/5/5 6/6/6 8/7/7 7/8/8 
s 8
f 1/9/9 2/10/10 6/11/11 5/12/12 
s 16
f 2/13/13 4/14/14 8/15/15 6/16/16 
s 32
f 4/17/17 3/18/18 7/19/19 8/20/20 
s 64
f 3/21/21 1/22/22 5/23/23 7/24/24 
# 6 polygons

#
# object obstaclesBox011
#

v  -32.5000 0.0000 78.0000
v  -7.5000 0.0000 78.0000
v  -32.5000 0.0000 72.0000
v  -7.5000 0.0000 72.0000
v  -32.5000 0.0000 78.0000
v  -7.5000 0.0000 78.0000
v  -32.5000 0.0000 72.0000
v  -7.5000 0.0000 72.0000
v  -24.8670 0.0000 72.0000
v  -15.1330 0.0000 72.0000
v  -15.1330 0.0000 78.0000
v  -24.8670 0.0000 78.0000
v  -24.8670 4.0000 78.0000
v  -15.1330 4.0000 78.0000
v  -15.1330 4.0000 72.0000
v  -24.8670 4.0000 72.0000
# 16 vertices

vn 0.0000 -1.0000 -0.0000
vn 0.0000 -1.0000 -0.0000
vn 0.0000 -1.0000 -0.0000
vn 0.0000 -1.0000 -0.0000
vn -0.2390 0.9710 0.0000
vn 0.2390 0.9710 -0.0000
vn 0.2390 0.9710 -0.0000
vn -0.2390 0.9710 0.0000
vn 0.0000 0.0000 1.0000
vn 0.0000 0.0000 1.0000
vn 0.0000 0.0000 1.0000
vn 0.0000 0.0000 1.0000
vn 1.0000 0.0000 -0.0000
vn 1.0000 0.0000 -0.0000
vn 1.0000 0.0000 -0.0000
vn 1.0000 0.0000 -0.0000
vn 0.0000 0.0000 -1.0000
vn 0.0000 0.0000 -1.0000
vn 0.0000 0.0000 -1.0000
vn 0.0000 0.0000 -1.0000
vn 1.0000 0.0000 -0.0000
vn 1.0000 0.0000 -0.0000
vn 1.0000 0.0000 -0.0000
vn 1.0000 0.0000 -0.0000
vn 0.0000 -1.0000 -0.0000
vn 0.0000 -1.0000 -0.0000
vn 0.0000 -1.0000 -0.0000
vn 0.0000 -1.0000 -0.0000
vn 0.0000 -1.0000 -0.0000
vn 0.0000 -1.0000 -0.0000
vn 0.0000 -1.0000 -0.0000
vn 0.0000 -1.0000 -0.0000
vn 0.2390 0.9710 -0.0000
vn 0.4642 0.8857 -0.0000
vn 0.4642 0.8857 -0.0000
vn 0.2390 0.9710 -0.0000
vn -0.2390 0.9710 0.0000
vn -0.4642 0.8857 0.0000
vn -0.4642 0.8857 -0.0000
vn -0.2390 0.9710 0.0000
vn 0.0000 0.0000 1.0000
vn 0.0000 0.0000 1.0000
vn 1.0000 0.0000 -0.0000
vn 0.0000 0.0000 1.0000
vn 0.0000 0.0000 1.0000
vn 0.0000 0.0000 1.0000
vn 1.0000 0.0000 -0.0000
vn 0.0000 0.0000 1.0000
vn 0.0000 0.0000 -1.0000
vn 0.0000 0.0000 -1.0000
vn 1.0000 0.0000 -0.0000
vn 0.0000 0.0000 -1.0000
vn 0.0000 0.0000 -1.0000
vn 0.0000 0.0000 -1.0000
vn 1.0000 0.0000 -0.0000
vn 0.0000 0.0000 -1.0000
# 56 vertex normals

vt 0.4450 0.2827 0.0000
vt 0.4450 0.6425 0.0000
vt 0.2232 0.6425 0.0000
vt 0.2232 0.2827 0.0000
vt 0.2223 0.2827 0.0000
vt 0.2223 0.6425 0.0000
vt 0.0005 0.6425 0.0000
vt 0.0005 0.2827 0.0000
vt 0.7426 0.2827 0.0000
vt 0.7426 0.6425 0.0000
vt 0.5948 0.6425 0.0000
vt 0.5948 0.2827 0.0000
vt 0.9692 0.0005 0.0000
vt 0.9692 0.2223 0.0000
vt 0.9692 0.2223 0.0000
vt 0.9692 0.0005 0.0000
vt 0.5938 0.2827 0.0000
vt 0.5938 0.6425 0.0000
vt 0.4460 0.6425 0.0000
vt 0.4460 0.2827 0.0000
vt 0.9692 0.2232 0.0000
vt 0.9692 0.4450 0.0000
vt 0.9692 0.4450 0.0000
vt 0.9692 0.2232 0.0000
vt 0.4450 0.9246 0.0000
vt 0.2232 0.9246 0.0000
vt 0.5938 0.9246 0.0000
vt 0.5938 0.9246 0.0000
vt 0.2232 0.0005 0.0000
vt 0.4450 0.0005 0.0000
vt 0.7426 0.9246 0.0000
vt 0.7426 0.9246 0.0000
vt 0.2223 0.9246 0.0000
vt 0.0005 0.9246 0.0000
vt 0.7426 0.0005 0.0000
vt 0.7426 0.0005 0.0000
vt 0.0005 0.0005 0.0000
vt 0.2223 0.0005 0.0000
vt 0.5938 0.0005 0.0000
vt 0.5938 0.0005 0.0000
# 40 texture coords

g obstaclesBox011
usemtl wire_255255255
s 2
f 17/25/25 18/26/26 19/27/27 20/28/28 
s 4
f 21/29/29 22/30/30 23/31/31 24/32/32 
s 8
f 20/33/33 19/34/34 22/35/35 21/36/36 
s 16
f 10/37/37 12/38/38 16/39/39 14/40/40 
s 32
f 18/41/41 17/42/42 24/43/43 23/44/44 
s 64
f 11/45/45 9/46/46 13/47/47 15/48/48 
s 2
f 18/26/49 12/49/50 10/50/51 19/27/52 
f 20/28/53 9/53/54 11/54/55 17/25/56 
s 4
f 22/30/57 14/57/58 16/58/59 23/31/60 
f 24/32/61 15/61/62 13/62/63 21/29/64 
s 8
f 19/34/65 10/55/66 14/56/67 22/35/68 
f 21/36/69 13/59/70 9/60/71 20/33/72 
s 32
f 17/42/73 11/51/74 15/52/75 24/43/76 
f 23/44/77 16/63/78 12/64/79 18/41/80 
# 14 polygons

