# 3ds Max Wavefront OBJ Exporter v0.97b - (c)2007 guruware
# 创建的文件:02.05.2017 16:18:42

mtllib 502.mtl

#
# object obstaclesBox007
#

v  2.2900 7.0000 41.3388
v  12.2900 7.0000 41.3388
v  2.2900 7.0000 23.5119
v  12.2900 7.0000 23.5119
v  2.2900 7.0000 41.3388
v  12.2900 7.0000 41.3388
v  2.2900 7.0000 23.5119
v  12.2900 7.0000 23.5119
v  6.2018 12.0000 41.3390
v  8.3782 12.0000 41.3390
v  8.3782 12.0000 23.5121
v  6.2018 12.0000 23.5121
# 12 vertices

vn 0.0000 -1.0000 -0.0000
vn 0.0000 -1.0000 -0.0000
vn 0.0000 -1.0000 -0.0000
vn 0.0000 -1.0000 -0.0000
vn 0.0000 1.0000 -0.0000
vn 0.0000 1.0000 -0.0000
vn 0.0000 1.0000 -0.0000
vn 0.0000 1.0000 -0.0000
vn 1.0000 0.0000 -0.0000
vn 1.0000 0.0000 -0.0000
vn 1.0000 0.0000 -0.0000
vn 1.0000 0.0000 -0.0000
vn 1.0000 0.0000 -0.0000
vn 1.0000 0.0000 -0.0000
vn 1.0000 0.0000 -0.0000
vn 1.0000 0.0000 -0.0000
vn 1.0000 0.0000 -0.0000
vn 1.0000 0.0000 -0.0000
vn 1.0000 0.0000 -0.0000
vn 1.0000 0.0000 -0.0000
vn 1.0000 0.0000 -0.0000
vn 1.0000 0.0000 -0.0000
vn 1.0000 0.0000 -0.0000
vn 1.0000 0.0000 -0.0000
vn 0.0000 -0.0000 1.0000
vn 0.0000 -0.0000 1.0000
vn 0.0000 -0.0000 1.0000
vn 0.7876 0.6162 -0.0000
vn 0.7876 0.6162 -0.0000
vn 0.7876 0.6162 -0.0000
vn 0.7876 0.6162 -0.0000
vn 0.0000 0.0000 -1.0000
vn 0.0000 0.0000 -1.0000
vn 0.0000 0.0000 -1.0000
vn -0.7876 0.6162 -0.0000
vn -0.7876 0.6162 -0.0000
vn -0.7876 0.6162 -0.0000
vn -0.7876 0.6162 -0.0000
vn 0.0000 0.0000 -1.0000
vn 0.0000 0.0000 -1.0000
vn 0.0000 0.0000 -1.0000
vn 0.0000 -0.0000 1.0000
vn 0.0000 -0.0000 1.0000
vn 0.0000 -0.0000 1.0000
# 44 vertex normals

vt 0.3097 0.0005 0.0000
vt 0.3097 0.5518 0.0000
vt 0.0005 0.5518 0.0000
vt 0.0005 0.0005 0.0000
vt 0.4439 0.5131 0.0000
vt 0.5985 0.3249 0.0000
vt 0.1551 0.5530 0.0000
vt 0.1551 0.8622 0.0000
vt 0.6202 0.5518 0.0000
vt 0.3109 0.5518 0.0000
vt 0.3109 0.5518 0.0000
vt 0.6202 0.5518 0.0000
vt 0.3109 0.0005 0.0000
vt 0.3109 0.0005 0.0000
vt 0.6202 0.0005 0.0000
vt 0.6202 0.0005 0.0000
vt 0.9995 0.5518 0.0000
vt 0.9322 0.5518 0.0000
vt 0.9322 0.0005 0.0000
vt 0.9995 0.0005 0.0000
vt 0.9314 0.0005 0.0000
vt 0.9314 0.5518 0.0000
vt 0.7768 0.5518 0.0000
vt 0.7768 0.0005 0.0000
vt 0.7760 0.0005 0.0000
vt 0.7760 0.5518 0.0000
vt 0.6214 0.5518 0.0000
vt 0.6214 0.0005 0.0000
vt 0.0005 0.6739 0.0000
vt 0.0005 0.7412 0.0000
vt 0.5985 0.3922 0.0000
vt 0.4439 0.2039 0.0000
# 32 texture coords

g obstaclesBox007
usemtl wire_255255255
s 2
f 1/1/1 3/2/2 4/3/3 2/4/4 
s 4
f 9/17/5 10/18/6 11/19/7 12/20/8 
s 8
f 1/9/9 2/10/10 6/11/11 5/12/12 
s 16
f 2/10/13 4/13/14 8/14/15 6/11/16 
s 32
f 4/13/17 3/15/18 7/16/19 8/14/20 
s 64
f 3/15/21 1/9/22 5/12/23 7/16/24 
s off
f 5/5/25 10/6/26 9/31/27 
f 6/21/28 8/22/29 11/23/30 10/24/31 
f 8/7/32 7/8/33 11/29/34 
f 7/25/35 5/26/36 9/27/37 12/28/38 
f 7/8/39 12/30/40 11/29/41 
f 5/5/42 6/32/43 10/6/44 
# 8 polygons - 4 triangles

